<?xml version="1.0" standalone="yes"?>
<svg width="512" height="512">
<path style="fill:#000000; stroke:none;" d="M0 0L0 512L512 512L512 0L0 0z"/>
<path style="fill:#55525b; stroke:none;" d="M202 64C257.644 64 305.977 86.0815 331.752 138C342.304 159.253 344 180.718 344 204C344 210.223 342.017 222.807 351.005 223.677C361.119 224.657 360 212.595 360 206C360 186.985 359.733 169.261 353.645 151C338.301 104.975 291.955 65.0055 242 65L242 64C253.181 63.9914 253.239 56.4449 260.093 49C267.542 40.9099 276.178 35.2635 287 33C280.322 30.1979 270.216 32 263 32C235.991 32 213.054 35.5481 202 64z"/>
<path style="fill:#353744; stroke:none;" d="M251 64C257.276 64 267.541 66.2722 271 60L273 60C276.122 66.1896 282.958 65.1154 289 66.5C302.891 69.6833 314.98 75.5793 328 81C328.004 74.6351 328.683 68.8799 331.312 63C333.12 58.9585 336.717 54.4619 334.215 50C315.8 17.1672 259.965 31.4846 251 64z"/>
<path style="fill:#55525b; stroke:none;" d="M375 129L376 129C376 95.5353 368.844 37.2044 417 33C410.564 30.2993 400.951 32 394 32C368.036 32 345.717 32.6198 332.756 59C329.946 64.7198 326.605 72.4181 328.318 78.9599C330.039 85.531 341.142 89.8897 346 94.1697C357.369 104.186 367.603 115.713 375 129z"/>
<path style="fill:#353744; stroke:none;" d="M391 177L392 177C392 138.977 385.982 95.7733 399 60L401 60C410.526 86.1781 408 113.192 408 141L408 269L408 319C408 329.589 407.251 339.174 416.015 346.786C429.694 358.666 466.901 354.768 471.471 335C475.886 315.898 472 291.619 472 272L472 140C472 115.953 477.984 82.4277 468.535 60C454.859 27.5383 409.363 22.6755 387.326 49.0008C373.715 65.2596 376 85.227 376 105C376 113.107 374.413 123.163 376.637 131C381.133 146.839 390.263 159.835 391 177z"/>
<path style="fill:#000000; stroke:none;" d="M271 60L269 64L275 64L273 60L271 60M399 60C390.88 75.4363 392 90.9593 392 108L392 175L392 438C423.795 425.77 424.53 385.082 423.995 357.004C423.822 347.896 412.147 344.738 409.109 336C404.843 323.733 408 305.922 408 293L408 136C408 111.445 412.709 82.2578 401 60L399 60z"/>
<path style="fill:#6fa4d8; stroke:none;" d="M56 244C73.667 237.185 94.27 240 113 240L219 240C237.098 240 259.591 236.049 272.482 252.015C281.221 262.838 280 274.934 280 288L280 353L280 402C280 414.732 280.612 426.65 271.671 436.96C258.543 452.1 235.813 448 218 448L113 448C94.27 448 73.667 450.815 56 444C56 460.591 62.5922 476.6 81 479.674C105.312 483.734 133.331 480 158 480C198.678 480 240.432 482.754 281 479.91C299.194 478.635 311.541 465.078 311.985 447C313.637 379.758 312 312.265 312 245C312 200.212 315.686 157.915 289.329 119C239.243 45.0474 126.642 47.2367 77.0285 120C51.5073 157.43 56 201.013 56 244z"/>
<path style="fill:#5c76b2; stroke:none;" d="M198 64L198 65C247.015 67.1049 293.145 109.276 306.576 155C314.136 180.74 312 207.443 312 234L312 355L312 419C312 430.049 313.366 442.134 311.192 453C308.492 466.499 298.104 477.761 284 479L284 480L348 480C360.818 480 373.041 480.741 382.816 470.826C394.188 459.291 392 443.805 392 429L392 337L392 229C392 207.54 394.046 185.066 389.335 164C379.78 121.277 346.425 82.8857 304 70.4244C283.17 64.306 263.542 64 242 64C252.821 68.5423 266.562 68.3835 278 72.8109C309.973 85.1873 334.707 110.257 349.219 141C358.788 161.272 360 182.02 360 204C360 210.007 360.951 226.516 350.019 223.164C341.921 220.68 344 208.369 344 202C344 180.739 342.705 160.685 333.691 141C316.114 102.612 282.515 74.8863 241 66.2855C226.901 63.3647 212.313 64 198 64z"/>
<path style="fill:#dbdee3; stroke:none;" d="M125.044 144.742C118.244 147.513 119.115 157.603 126.019 159.566C134.26 161.911 145.451 160 154 160L212 160C219.482 160 234.473 162.831 240.721 158.142C247.75 152.867 241.923 144.699 235 144.094C209.744 141.887 183.361 144 158 144C148.607 144 133.785 141.18 125.044 144.742z"/>
<path style="fill:#fbbe18; stroke:none;" d="M40 288L232 288C232 273.416 233.681 257.832 220.96 247.529C209.131 237.949 193.178 240 179 240L91 240C77.5632 240 62.4012 237.87 51.0394 246.708C37.919 256.915 40 273.289 40 288z"/>
<path style="fill:#f68820; stroke:none;" d="M204 240L204 241C229.68 243.256 232 267.866 232 288L40 288L40 304L232 304C232 341.047 236.493 381.29 231.711 418C229.82 432.516 219.883 444.769 205 447C210.462 449.292 218.113 448 224 448C240.828 448 262.993 451.2 273.895 434.996C282.609 422.044 280 404.799 280 390L280 293C280 277.811 282.649 260.971 270.816 249.185C255.446 233.878 223.717 240 204 240z"/>
<path style="fill:#b2967d; stroke:none;" d="M252 240L252 241L255 241L252 240z"/>
<path style="fill:#fbbe18; stroke:none;" d="M40 304L40 395C40 408.515 37.346 424.457 45.9282 435.985C56.0955 449.643 72.9304 448 88 448L187 448C201.182 448 216.96 448.276 225.895 434.996C234.308 422.491 232 406.289 232 392L232 304L40 304z"/>
<path style="fill:#808080; stroke:none;" d="M424 351C424 371.891 426.283 395.207 415.384 414C411.766 420.239 407.381 426 401.999 430.826C399.132 433.398 394.208 435.684 392.603 439.325C390.71 443.622 392.464 449.404 391.482 454C388.899 466.088 378.913 476.169 367 479L367 480C406.863 479.67 443.176 447.675 453.116 410C458.115 391.049 456 370.448 456 351L424 351z"/>
<path style="fill:#b1967f; stroke:none;" d="M279 420L279 423L280 423L279 420M252 447L252 448L255 448L252 447z"/>
</svg>
