<?xml version="1.0" standalone="yes"?>
<svg width="512" height="512">
<path style="fill:#000000; stroke:none;" d="M0 0L0 512L512 512L512 0L0 0z"/>
<path style="fill:#f05555; stroke:none;" d="M85 426L86 426L132 381C125.119 371.232 116.221 363.054 109.515 353C92.9744 328.198 82.1338 297.825 80.0895 268C73.048 165.27 164.71 70.2048 269 80.1698C298.795 83.0167 328.059 92.8818 353 109.515C363.054 116.221 371.232 125.119 381 132L426 86C412.091 66.4184 385.121 51.3136 364 40.7531C274.075 -4.20953 164.999 13.2414 91 80.1698C-8.39075 170.064 -6.88143 332.182 85 426z"/>
<path style="fill:#ff7373; stroke:none;" d="M237 28.4244C159.049 38.6642 90.2026 79.4222 53.2585 151C38.8916 178.835 32.6036 207.322 28.5756 238C27.3167 247.588 25.1999 268.227 40 267.862C55.0022 267.491 51.5381 248.938 52.7145 239C56.7729 204.717 66.6007 172.972 86.0008 144C111.541 105.859 149.307 76.436 193 62.0008C209.156 56.663 226.093 53.7798 243 52.1698C250.679 51.4385 260.09 54.0771 265.486 46.9452C279.415 28.5372 247.012 27.1092 237 28.4244z"/>
<path style="fill:#e78989; stroke:none;" d="M238 80L238 81L243 81L238 80z"/>
<path style="fill:#d7e6e6; stroke:none;" d="M243 80.4244C204.69 85.4569 171.02 97.0976 141 122.439C124.924 136.009 111.984 152.819 101.579 171C91.6868 188.283 85.4778 207.381 82.5725 227C78.2301 256.324 79.8556 285.793 89.6952 314C116.68 391.359 196.666 441.275 278 430.711C304.962 427.209 331.382 417.569 354 402.485C452.419 336.847 457.16 188.991 364 116.665C346.414 103.012 326.35 93.127 305 87C285.631 81.4415 263.179 77.7737 243 80.4244z"/>
<path style="fill:#e78989; stroke:none;" d="M266 80L266 81L272 81L266 80z"/>
<path style="fill:#e49898; stroke:none;" d="M225 82L225 83L228 83L225 82z"/>
<path style="fill:#e3a3a3; stroke:none;" d="M284 82L284 83L287 83L284 82z"/>
<path style="fill:#e49898; stroke:none;" d="M215 84L215 85L218 85L215 84z"/>
<path style="fill:#e13741; stroke:none;" d="M425 87.3457C421.175 88.2997 417.665 93.3347 415 96L391 120C388.231 122.769 381.393 127.523 381.921 132C382.576 137.551 391.929 144.613 395.335 149C404.842 161.246 412.591 174.726 418.576 189C444.144 249.979 432.184 325.64 385.961 374C340.761 421.289 273.02 444.556 209 425.706C187.493 419.374 166.623 409.107 149 395.196C144.678 391.784 134.783 379.515 129 382.662C116.847 389.276 105.785 405.215 96 415C93.3337 417.667 86.2346 422.592 87.3457 426.996C88.5365 431.716 96.4635 436.652 100 439.711C112.742 450.736 127.109 460.362 142 468.219C193.279 495.276 253.421 503.072 310 490.576C386.952 473.579 453.753 416.158 480.947 342C492.788 309.708 496.002 278.105 496 244C495.997 200.09 478.75 153.443 453.421 118C447.451 109.646 441.141 101.76 434.424 94C432.261 91.502 428.931 86.3654 425 87.3457z"/>
<path style="fill:#6b6f6f; stroke:none;" d="M249 157L249 158L262 158L249 157z"/>
<path style="fill:#858c8c; stroke:none;" d="M244.667 158.333L245.333 158.667L244.667 158.333z"/>
<path style="fill:#3c3c3c; stroke:none;" d="M246 158.439C219.451 162.62 204.563 190.003 209.261 215C210.529 221.745 218.893 231.93 218.134 238C217.146 245.904 209.946 253.389 208.59 262C203.582 293.816 204.705 347.613 246 353.699C251.62 354.527 258.378 354.503 264 353.7C306.711 347.598 309.843 293.794 302.996 260C301.426 252.248 294.889 245.248 293.841 238C293.297 234.24 297.136 230.189 298.73 227C301.801 220.858 303.471 213.852 303.91 207C305.968 174.863 275.864 153.736 246 158.439z"/>
<path style="fill:#848b8b; stroke:none;" d="M265 158L265 159L268 159L265 158z"/>
<path style="fill:#3c3c3c; stroke:none;" d="M155 160.654C138.955 165.609 144 191.29 144 204L144 322C144 335.336 145.132 356.992 165 351.057C180.972 346.286 176 320.677 176 308L176 190C176 177.156 174.847 154.524 155 160.654z"/>
<path style="fill:#797f7f; stroke:none;" d="M162 160L162 161L165 161L162 160z"/>
<path style="fill:#787e7e; stroke:none;" d="M144.333 171.667L144.667 172.333L144.333 171.667z"/>
<path style="fill:#7a8080; stroke:none;" d="M175.333 171.667L175.667 172.333L175.333 171.667z"/>
<path style="fill:#a0aaaa; stroke:none;" d="M252 189L252 190L259 190L252 189z"/>
<path style="fill:#d7e6e6; stroke:none;" d="M250.001 190.703C231.142 197.115 242.223 226.084 261 220.196C281.192 213.864 270.017 183.898 250.001 190.703z"/>
<path style="fill:#747979; stroke:none;" d="M208 196L208 200L209 200L208 196M303 196L303 200L304 200L303 196z"/>
<path style="fill:#dba1a5; stroke:none;" d="M424.333 204.667L424.667 205.333L424.333 204.667z"/>
<path style="fill:#7d8484; stroke:none;" d="M240.333 208.667L240.667 209.333L240.333 208.667z"/>
<path style="fill:#7a8080; stroke:none;" d="M271.333 208.667L271.667 209.333L271.333 208.667z"/>
<path style="fill:#7c8282; stroke:none;" d="M208 210L208 213L209 213L208 210z"/>
<path style="fill:#828989; stroke:none;" d="M303 210L303 213L304 213L303 210z"/>
<path style="fill:#db9b9f; stroke:none;" d="M426.333 211.667L426.667 212.333L426.333 211.667z"/>
<path style="fill:#e49d9d; stroke:none;" d="M84.3333 215.667L84.6667 216.333L84.3333 215.667z"/>
<path style="fill:#dc8e93; stroke:none;" d="M427.333 215.667L427.667 216.333L427.333 215.667z"/>
<path style="fill:#97a0a0; stroke:none;" d="M209.333 216.667L209.667 217.333L209.333 216.667z"/>
<path style="fill:#9aa3a3; stroke:none;" d="M302.333 216.667L302.667 217.333L302.333 216.667z"/>
<path style="fill:#3c3c3c; stroke:none;" d="M344 240C339.147 240 333.474 239.208 329.001 241.457C318.971 246.498 317.078 261.509 326.044 268.57C331.106 272.557 337.944 272 344 272C344.001 277.533 343.582 284.131 346.738 288.985C352.626 298.039 367.374 298.039 373.262 288.985C376.418 284.131 375.999 277.533 376 272C381.533 271.999 388.131 272.418 392.985 269.262C401.969 263.419 401.956 248.572 392.985 242.738C388.131 239.582 381.533 240.001 376 240C376 233.944 376.557 227.106 372.57 222.044C365.818 213.471 351.426 214.414 346.14 224.004C343.49 228.811 344 234.713 344 240z"/>
<path style="fill:#797f7f; stroke:none;" d="M362 216L362 217L365 217L362 216z"/>
<path style="fill:#6e7373; stroke:none;" d="M260.667 220.333L261.333 220.667L260.667 220.333z"/>
<path style="fill:#656969; stroke:none;" d="M254 221L254 222L258 222L254 221z"/>
<path style="fill:#e49d9d; stroke:none;" d="M82 225L82 228L83 228L82 225z"/>
<path style="fill:#dc8d92; stroke:none;" d="M429 225L429 228L430 228L429 225z"/>
<path style="fill:#787e7e; stroke:none;" d="M344.333 227.667L344.667 228.333L344.333 227.667z"/>
<path style="fill:#7a8080; stroke:none;" d="M375.333 227.667L375.667 228.333L375.333 227.667z"/>
<path style="fill:#e3a1a1; stroke:none;" d="M81 230L81 234L82 234L81 230z"/>
<path style="fill:#797f7f; stroke:none;" d="M386 240L386 241L389 241L386 240z"/>
<path style="fill:#787e7e; stroke:none;" d="M320.333 251.667L320.667 252.333L320.333 251.667z"/>
<path style="fill:#7a8080; stroke:none;" d="M399.333 251.667L399.667 252.333L399.333 251.667z"/>
<path style="fill:#a0aaaa; stroke:none;" d="M252 253L252 254L259 254L252 253z"/>
<path style="fill:#d7e6e6; stroke:none;" d="M250.001 254.653C244.575 256.362 240.925 261.488 240.188 267C238.117 282.501 234.044 330.802 261.999 321.297C270.359 318.455 271.962 309.745 271.999 302C272.074 286.595 277.858 245.876 250.001 254.653z"/>
<path style="fill:#8d9595; stroke:none;" d="M302.333 256.667L302.667 257.333L302.333 256.667z"/>
<path style="fill:#797f7f; stroke:none;" d="M320 258L320 261L321 261L320 258z"/>
<path style="fill:#7b8181; stroke:none;" d="M399 258L399 261L400 261L399 258z"/>
<path style="fill:#a4aeae; stroke:none;" d="M208 260L208 263L209 263L208 260z"/>
<path style="fill:#a5afaf; stroke:none;" d="M303 260L303 263L304 263L303 260z"/>
<path style="fill:#dd8187; stroke:none;" d="M431 266L431 271L432 271L431 266z"/>
<path style="fill:#e78989; stroke:none;" d="M80 267L80 272L81 272L80 267z"/>
<path style="fill:#7b8181; stroke:none;" d="M331.667 271.333L332.333 271.667L331.667 271.333z"/>
<path style="fill:#7c8282; stroke:none;" d="M386 271L386 272L389 272L386 271z"/>
<path style="fill:#797f7f; stroke:none;" d="M344 282L344 285L345 285L344 282z"/>
<path style="fill:#7b8181; stroke:none;" d="M375 282L375 285L376 285L375 282z"/>
<path style="fill:#db9ea2; stroke:none;" d="M428 289L428 292L429 292L428 289z"/>
<path style="fill:#e39e9e; stroke:none;" d="M84.3333 294.667L84.6667 295.333L84.3333 294.667z"/>
<path style="fill:#dd8c91; stroke:none;" d="M427.333 294.667L427.667 295.333L427.333 294.667z"/>
<path style="fill:#7b8181; stroke:none;" d="M355.667 295.333L356.333 295.667L355.667 295.333z"/>
<path style="fill:#a2acac; stroke:none;" d="M363.667 295.333L364.333 295.667L363.667 295.333z"/>
<path style="fill:#8d9595; stroke:none;" d="M240.333 309.667L240.667 310.333L240.333 309.667z"/>
<path style="fill:#8b9292; stroke:none;" d="M271.333 309.667L271.667 310.333L271.333 309.667z"/>
<path style="fill:#909898; stroke:none;" d="M303.333 312.667L303.667 313.333L303.333 312.667z"/>
<path style="fill:#8d9595; stroke:none;" d="M209.333 317.667L209.667 318.333L209.333 317.667z"/>
<path style="fill:#909898; stroke:none;" d="M302.333 317.667L302.667 318.333L302.333 317.667z"/>
<path style="fill:#9fa9a9; stroke:none;" d="M252 322L252 323L259 323L252 322z"/>
<path style="fill:#797f7f; stroke:none;" d="M144 338L144 341L145 341L144 338z"/>
<path style="fill:#7b8181; stroke:none;" d="M175 338L175 341L176 341L175 338M155.667 351.333L156.333 351.667L155.667 351.333z"/>
<path style="fill:#a2acac; stroke:none;" d="M163.667 351.333L164.333 351.667L163.667 351.333z"/>
<path style="fill:#979f9f; stroke:none;" d="M269.667 352.333L270.333 352.667L269.667 352.333z"/>
<path style="fill:#8d9595; stroke:none;" d="M265.667 353.333L266.333 353.667L265.667 353.333z"/>
<path style="fill:#737878; stroke:none;" d="M249 354L249 355L261 355L249 354z"/>
<path style="fill:#dba2a5; stroke:none;" d="M204.667 424.333L205.333 424.667L204.667 424.333z"/>
<path style="fill:#db9b9f; stroke:none;" d="M211.667 426.333L212.333 426.667L211.667 426.333z"/>
<path style="fill:#dc888e; stroke:none;" d="M215 427L215 428L218 428L215 427z"/>
<path style="fill:#db9fa3; stroke:none;" d="M289 428L289 429L292 429L289 428z"/>
<path style="fill:#dd8389; stroke:none;" d="M225 429L225 430L228 430L225 429z"/>
<path style="fill:#dc8e93; stroke:none;" d="M284 429L284 430L287 430L284 429z"/>
<path style="fill:#de757c; stroke:none;" d="M238 431L238 432L246 432L238 431M266 431L266 432L272 432L266 431z"/>
</svg>
