<?xml version="1.0" standalone="yes"?>
<svg width="512" height="512">
<path style="fill:#ffffff; stroke:none;" d="M0 0L0 8L1 8L9 1L0 0z"/>
<path style="fill:#3a302b; stroke:none;" d="M123 302C117.248 297.952 112.622 291.288 105 291.059C92.9983 290.7 79.2767 308.526 72.3295 317C69.5865 320.346 67.2157 324.513 67.6528 329C68.6843 339.589 85.8415 353.253 94 359L94 360C70.5828 376.012 51.0259 400.974 31 421C20.6351 431.365 7.18792 441.79 2.09028 456C-9.60828 488.611 21.9722 521.654 55 509.985C67.4352 505.591 75.9411 495.059 85 486L130 441C135.817 435.183 142.614 425.319 150 421.636C154.566 419.359 159.219 426.219 162 429C171.13 438.129 181.236 451.385 194 439.895C201.975 432.716 217.029 421.501 220.192 411C223.094 401.366 210.589 397.463 211.631 390.09C212.138 386.501 218.452 382.52 221 380.285C228.693 373.537 236.468 366.841 244 359.914C246.99 357.165 250.86 352.119 255 351.164C259.321 350.167 264.193 356.379 267 358.925C276.406 367.457 293.12 377.242 299.364 388.285C302.339 393.547 288.978 402.507 291.514 411C293.31 417.015 299.728 421.728 304 426C309.405 431.405 315.714 440.475 323 443.258C336.181 448.292 352.495 427.234 359 418L360 418C372.725 436.064 392.368 451.368 408 467C423.039 482.039 439.373 505.671 461 510.764C493.854 518.5 522.407 485.442 509.124 454C504.35 442.7 494.488 434.488 486 426L444 384C438.128 378.128 423.333 368.098 421.207 360C420.198 356.159 425.678 352.324 428 350C434.276 343.719 446.482 335.298 444.252 325C442.651 317.609 435.073 312.073 430 307C417.11 294.11 404.713 282.586 391 302L390 302L354 260C367.521 253.695 379.858 238.115 391 228.166C416.362 205.519 441.972 183.102 467 160.086C478.247 149.743 498.634 137.916 505.231 124C507.895 118.383 506.68 111.982 507.09 106C507.98 92.9962 508.469 80.0286 509.039 67C509.647 53.1205 509.854 38.8272 511.17 25C511.824 18.1265 514.011 8.92249 508.606 3.34412C503.974 -1.43561 496.038 -0.00970459 490 0C472.864 0.0274963 455.058 1.20691 438 2.83023C423.02 4.25577 400.647 -0.215393 387.004 6.68826C380.813 9.8208 376.202 16.8852 371.715 22C363.464 31.4067 354.965 40.5948 346.715 50C327.59 71.8035 308.233 93.4422 288.831 115C278.581 126.389 264.062 138.387 257 152L255 152C250.169 141.641 238.811 132.491 231.169 124C214.114 105.05 197.147 86.0171 180.166 67C168.239 53.6429 156.117 40.4397 144.285 27C138.422 20.3394 132.181 10.4761 124 6.57254C115.013 2.28439 99.8566 4.22687 90 3.98535C70.339 3.5036 50.6868 1.03159 31 1C22.6004 0.986511 8.98136 -3.42419 2.65278 4.22455C-3.27559 11.3896 0.958792 24.6151 0.999228 33C1.09094 52.0166 3.1295 71.0191 3.96065 90C4.4008 100.052 2.52984 113.5 6.03241 123C8.35786 129.307 15.1191 134.003 20 138.285C29.4296 146.556 38.5242 155.209 48 163.424C70.3424 182.796 91.8066 203.177 114 222.715C127.001 234.159 144.051 245.65 154.704 259.285C158.175 263.73 151.665 268.851 148.831 272C140.619 281.125 128.194 290.862 123 302z"/>
<path style="fill:#ffffff; stroke:none;" d="M22 0L22 1C44.4069 1 66.6477 3.43765 89 3.98535C98.8566 4.22687 114.013 2.28439 123 6.57254C138.274 13.8608 151.984 36.4771 163.166 49L223.166 116C233.67 127.764 245.928 139.119 255 152L257 152L347.576 50L372.576 22L389 6.22839L418 3.91049L482 1C471.496 -3.40759 453.42 0 442 0L348 0L22 0M505 0L505 1L511 8L512 8L512 0L505 0M511 22C511 43.7385 508.546 65.3152 508.015 87C507.757 97.5078 509.778 113.398 505.231 123C501.882 130.074 493.783 135.405 488 140.424C477.866 149.22 468.088 158.436 458 167.285C435.132 187.344 412.69 207.905 390 228.166C378.236 238.67 366.881 250.928 354 260C360.712 275.059 378.478 290.235 390 302L391 302C395.368 297.644 400.387 291.529 407 290.988C417.824 290.102 436.76 312.593 442.12 321C449.44 332.479 434.097 342.888 427 350C424.331 352.675 418.681 356.648 420.752 361C424.435 368.743 434.963 375.963 441 382L488 429C497.436 438.436 508.911 448.063 511 462L512 462L512 151L512 61C512 49.8419 515.308 32.2657 511 22z"/>
<path style="fill:#90877b; stroke:none;" d="M23 23L23 24L31 24L23 23z"/>
<path style="fill:#584f47; stroke:none;" d="M31 23L31 24L39 24L31 23z"/>
<path style="fill:#6f655c; stroke:none;" d="M477 23L477 24L483 24L477 23z"/>
<path style="fill:#948b7f; stroke:none;" d="M483 23L483 24L488 26C489.235 22.7248 485.499 23.0414 483 23z"/>
<path style="fill:#b7ae9f; stroke:none;" d="M23 24C23.0121 42.3408 25.5366 60.6826 25.9853 79C26.2234 88.7164 24.0328 103.889 27.6034 112.91C31.9488 123.889 51.2308 135.336 60 143.166C86.3316 166.678 112.504 190.389 139 213.715C147.023 220.777 155.104 227.796 163 235C165.649 237.417 170.079 242.844 173.999 242.797C177.531 242.755 180.228 238.339 182.285 236C188.165 229.311 194.14 222.707 200 216L200 215C184.77 199.77 165.571 185.015 152.533 167.996C147.171 160.996 150.238 148.231 161 149.383C167.666 150.097 173.607 158.607 178 163C189.823 174.823 201.33 189.37 215 199C220.367 191.956 226.782 185.699 232.576 179C234.604 176.655 238.731 173.348 238.808 170C238.892 166.305 234.259 162.477 232 160C225.075 152.406 218.158 144.766 211.424 137C189.16 111.321 165.702 86.6674 143.424 61C135.785 52.1982 123.909 32.7854 112.985 28.6026C105.344 25.6768 95.9614 27.5879 88 26.8302C66.5461 24.7886 44.5677 24 23 24z"/>
<path style="fill:#92887c; stroke:none;" d="M42 24L42 25L50 25L42 24z"/>
<path style="fill:#60564e; stroke:none;" d="M50 24L50 25L56 25L50 24z"/>
<path style="fill:#70675d; stroke:none;" d="M457 24L457 25L463 25L457 24z"/>
<path style="fill:#b7ae9f; stroke:none;" d="M137 318L137 319L156 338L157 338L231 264L282 213C301.633 193.367 320.809 173.101 341 154.043C347.412 147.991 362.172 144.3 362.601 158.001C362.784 163.833 357.739 168.241 353.999 172L328 198L220 306L184 342C178.971 347.029 170.83 352.029 177.063 359C180.189 362.496 187.769 372.694 193 372.079C200.73 371.17 212.263 356.288 218 351.166C239.583 331.894 261.136 312.526 283 293.576C331.234 251.771 378.725 208.954 426 166.075C438.921 154.355 452.034 142.839 465 131.169C470.573 126.153 479.556 120.799 482.972 113.999C486.409 107.16 484.579 96.459 485.09 89C486.567 67.4213 488 45.6533 488 24C465.564 24 442.263 24.0877 420 26.7145C413.193 27.5177 404.303 25.8612 398 29.0278C387.687 34.2094 378.296 49.3886 370.715 58C352.936 78.194 334.494 97.8052 316.715 118C257.493 185.266 195.966 250.503 137 318z"/>
<path style="fill:#ffffff; stroke:none;" d="M0 25L0 462L1 462C3.26589 446.883 16.8028 436.197 27 426C49.1781 403.822 71.3552 381.672 94 360L94 359C86.6592 351.659 69.2427 339.874 68.01 329C66.703 317.47 86.288 302.921 94 296.185C97.107 293.471 100.685 290.954 105 291.152C112.435 291.494 116.729 299.077 123 302C130.073 291.957 139.593 283.048 147.914 274C150.449 271.243 156.8 266.051 156.793 262.039C156.787 258.337 150.472 254.373 148 252.166L119 226.166C92.9431 202.899 66.9661 179.539 41 156.169C30.408 146.636 14.0436 136.499 6.93827 124C3.05132 117.163 4.01249 103.773 4 96C3.97205 78.6154 3.32198 60.2596 1.28549 43C0.601584 37.2037 2.26976 30.4091 0 25z"/>
<path style="fill:#81776d; stroke:none;" d="M65 25L65 26L71 26L65 25z"/>
<path style="fill:#5b524a; stroke:none;" d="M71 25L71 26L79 26L71 25z"/>
<path style="fill:#7e756a; stroke:none;" d="M439 25L439 26L445 26L439 25z"/>
<path style="fill:#82786d; stroke:none;" d="M85 26L85 27L91 27L85 26z"/>
<path style="fill:#6d635a; stroke:none;" d="M416 26L416 27L422 27L416 26z"/>
<path style="fill:#6b6158; stroke:none;" d="M488 26L488 35L489 35L488 26z"/>
<path style="fill:#837a6f; stroke:none;" d="M105 27L105 28L113 28L105 27z"/>
<path style="fill:#7b7167; stroke:none;" d="M398 27L398 28L407 28L398 27z"/>
<path style="fill:#877e72; stroke:none;" d="M23 33L23 40L24 40L23 33z"/>
<path style="fill:#8b8276; stroke:none;" d="M487 42L487 47L488 47L487 42z"/>
<path style="fill:#7b7268; stroke:none;" d="M24 55L24 60L25 60L24 55z"/>
<path style="fill:#867d72; stroke:none;" d="M486 63L486 71L487 71L486 63z"/>
<path style="fill:#887f73; stroke:none;" d="M25 73L25 80L26 80L25 73z"/>
<path style="fill:#756b62; stroke:none;" d="M485 85L485 94L486 94L485 85z"/>
<path style="fill:#766c62; stroke:none;" d="M26 95L26 104L27 104L26 95z"/>
<path style="fill:#898074; stroke:none;" d="M484 103L484 108L485 108L484 103z"/>
<path style="fill:#645a52; stroke:none;" d="M484 108L484 114L485 114L484 108z"/>
<path style="fill:#8a8175; stroke:none;" d="M349 147L349 148L354 148L349 147z"/>
<path style="fill:#b7ae9f; stroke:none;" d="M335 276C329.932 281.054 316.148 289.127 314.346 296.039C313.212 300.388 320.373 305.373 323 308L354 339L355 339C359.242 334.758 372.783 325.29 372.793 319C372.8 314.94 366.471 309.807 363.925 307C354.794 296.933 346.034 283.936 335 276M339 355C333.766 347.57 326.418 341.418 320 335C315.135 330.135 303.143 313.24 296 313.206C291.682 313.185 286.124 319.987 283 322.586C280.446 324.712 274.207 328.251 274.207 332.039C274.207 336.181 280.3 339.738 283 342.169C291.666 349.969 300.188 357.938 309 365.576C311.522 367.761 315.384 372.795 319 372.793C325.284 372.791 334.763 359.237 339 355z"/>
<path style="fill:#ffffff; stroke:none;" d="M104 318L95 327L95 328L161 394C165.702 398.702 177.069 414.76 184 414.794C187.529 414.811 191.436 410.086 194 408L194 407L135 348L104 318M407 318L340 385C335.547 389.453 319.128 401.249 319.921 408C320.335 411.523 324.672 414.664 327 417L328 417L417 328L417 327L407 318z"/>
<path style="fill:#918b88; stroke:none;" d="M416 328L417 329L416 328M415 329L416 330L415 329M414 330L415 331L414 330M413 331L414 332L413 331M412 332L413 333L412 332M411 333L412 334L411 333z"/>
<path style="fill:#8c8683; stroke:none;" d="M101 334L102 335L101 334z"/>
<path style="fill:#918b88; stroke:none;" d="M410 334L411 335L410 334z"/>
<path style="fill:#8d8784; stroke:none;" d="M102 335L103 336L102 335z"/>
<path style="fill:#918b88; stroke:none;" d="M409 335L410 336L409 335z"/>
<path style="fill:#8d8885; stroke:none;" d="M103 336L104 337L103 336z"/>
<path style="fill:#918b88; stroke:none;" d="M408 336L409 337L408 336z"/>
<path style="fill:#8f8986; stroke:none;" d="M104 337L105 338L104 337z"/>
<path style="fill:#918b88; stroke:none;" d="M407 337L408 338L407 337z"/>
<path style="fill:#908a87; stroke:none;" d="M105 338L106 339L105 338z"/>
<path style="fill:#918b88; stroke:none;" d="M406 338L407 339L406 338M106 339L107 340L106 339M405 339L406 340L405 339z"/>
<path style="fill:#928d8a; stroke:none;" d="M107 340L108 341L107 340z"/>
<path style="fill:#918b88; stroke:none;" d="M404 340L405 341L404 340z"/>
<path style="fill:#938d8b; stroke:none;" d="M108 341L109 342L108 341z"/>
<path style="fill:#918b88; stroke:none;" d="M403 341L404 342L403 341z"/>
<path style="fill:#948e8b; stroke:none;" d="M109 342L110 343L109 342z"/>
<path style="fill:#918b88; stroke:none;" d="M402 342L403 343L402 342z"/>
<path style="fill:#95908d; stroke:none;" d="M110 343L111 344L110 343z"/>
<path style="fill:#918b88; stroke:none;" d="M401 343L402 344L401 343z"/>
<path style="fill:#96918e; stroke:none;" d="M111 344L112 345L111 344z"/>
<path style="fill:#918b88; stroke:none;" d="M400 344L401 345L400 344z"/>
<path style="fill:#97918f; stroke:none;" d="M112 345L113 346L112 345z"/>
<path style="fill:#918b88; stroke:none;" d="M399 345L400 346L399 345z"/>
<path style="fill:#989390; stroke:none;" d="M113 346L114 347L113 346z"/>
<path style="fill:#918b88; stroke:none;" d="M398 346L399 347L398 346z"/>
<path style="fill:#999491; stroke:none;" d="M114 347L115 348L114 347z"/>
<path style="fill:#918b88; stroke:none;" d="M397 347L398 348L397 347z"/>
<path style="fill:#9a9592; stroke:none;" d="M115 348L116 349L115 348z"/>
<path style="fill:#918b88; stroke:none;" d="M396 348L397 349L396 348z"/>
<path style="fill:#9b9694; stroke:none;" d="M116 349L117 350L116 349z"/>
<path style="fill:#ffffff; stroke:none;" d="M50 511L50 512L465 512L465 511C448.56 509.565 437.884 495.884 427 485L360 418C350.409 424.756 342.438 440.112 331 443.485C319.268 446.946 305.116 426.295 298.015 419C294.784 415.682 291.004 411.995 291.163 407C291.368 400.544 302.162 394.639 300.654 389.17C298.561 381.575 282.784 372.171 277 366.925C272.734 363.056 261.21 348.904 255 350.33C250.933 351.264 246.929 356.246 244 358.975C236.508 365.956 228.738 372.718 221 379.424C218.195 381.856 211.424 386.119 210.921 390.09C209.93 397.908 223.389 401.269 219.837 411C216.087 421.274 201.84 431.57 194 438.957C181.011 451.196 171.569 437.565 162 428C159.187 425.188 154.625 418.551 150 420.752C142.61 424.268 135.758 434.242 130 440L83 487C73.1419 496.858 64.137 507.72 50 511z"/>
<path style="fill:#918b88; stroke:none;" d="M395 349L396 350L395 349z"/>
<path style="fill:#9c9795; stroke:none;" d="M117 350L118 351L117 350z"/>
<path style="fill:#918b88; stroke:none;" d="M394 350L395 351L394 350z"/>
<path style="fill:#9c9795; stroke:none;" d="M118 351L119 352L118 351z"/>
<path style="fill:#8e8886; stroke:none;" d="M393 351L394 352L393 351z"/>
<path style="fill:#9c9795; stroke:none;" d="M119 352L120 353L119 352M120 353L121 354L120 353M121 354L122 355L121 354M122 355L123 356L122 355M123 356L124 357L123 356M124 357L125 358L124 357M125 358L126 359L125 358M126 359L127 360L126 359M127 360L128 361L127 360M128 361L129 362L128 361M129 362L130 363L129 362M130 363L131 364L130 363M131 364L132 365L131 364M132 365L133 366L132 365M133 366L134 367L133 366M134 367L135 368L134 367M135 368L136 369L135 368M136 369L137 370L136 369M137 370L138 371L137 370M138 371L139 372L138 371M139 372L140 373L139 372M140 373L141 374L140 373M141 374L142 375L141 374z"/>
<path style="fill:#fcc00f; stroke:none;" d="M110 375L91 393L91 394L110 412.995L118 418.079L137 402L137 401L110 375z"/>
<path style="fill:#9c9795; stroke:none;" d="M142 375L143 376L142 375z"/>
<path style="fill:#fcc00f; stroke:none;" d="M401 375C393.916 382.084 381.077 389.908 376.752 399C374.285 404.185 388.839 418.364 394 418.364C400.705 418.364 410.652 404.557 414.98 400C416.733 398.155 419.366 395.853 418.654 393C417.098 386.757 406.081 378.579 401 375z"/>
<path style="fill:#9c9795; stroke:none;" d="M143 376L144 377L143 376z"/>
<path style="fill:#a8a4a2; stroke:none;" d="M367 376L368 377L367 376z"/>
<path style="fill:#9c9795; stroke:none;" d="M144 377L145 378L144 377z"/>
<path style="fill:#a29e9b; stroke:none;" d="M366 377L367 378L366 377z"/>
<path style="fill:#9c9795; stroke:none;" d="M145 378L146 379L145 378M365 378L366 379L365 378M146 379L147 380L146 379z"/>
<path style="fill:#95908d; stroke:none;" d="M364 379L365 380L364 379z"/>
<path style="fill:#9c9795; stroke:none;" d="M147 380L148 381L147 380z"/>
<path style="fill:#8f8986; stroke:none;" d="M363 380L364 381L363 380z"/>
<path style="fill:#9c9795; stroke:none;" d="M148 381L149 382L148 381M149 382L150 383L149 382M150 383L151 384L150 383M151 384L152 385L151 384M152 385L153 386L152 385M153 386L154 387L153 386M154 387L155 388L154 387M155 388L156 389L155 388M156 389L157 390L156 389M157 390L158 391L157 390M158 391L159 392L158 391M159 392L160 393L159 392M160 393L161 394L160 393M161 394L162 395L161 394M162 395L163 396L162 395M163 396L164 397L163 396M164 397L165 398L164 397M165 398L166 399L165 398M166 399L167 400L166 399M167 400L168 401L167 400z"/>
<path style="fill:#938d8b; stroke:none;" d="M343 400L344 401L343 400z"/>
<path style="fill:#9c9795; stroke:none;" d="M168 401L169 402L168 401z"/>
<path style="fill:#9e9a97; stroke:none;" d="M342 401L343 402L342 401z"/>
<path style="fill:#9c9795; stroke:none;" d="M169 402L170 403L169 402z"/>
<path style="fill:#aaa6a4; stroke:none;" d="M341 402L342 403L341 402z"/>
<path style="fill:#9c9795; stroke:none;" d="M170 403L171 404L170 403M171 404L172 405L171 404M172 405L173 406L172 405M173 406L174 407L173 406M174 407L175 408L174 407z"/>
<path style="fill:#a8a4a2; stroke:none;" d="M318 407L319 408L318 407z"/>
<path style="fill:#9c9795; stroke:none;" d="M175 408L176 409L175 408M176 409L177 410L176 409z"/>
<path style="fill:#fcc00f; stroke:none;" d="M435 409L409 435L409 436C413.235 440.235 422.719 453.793 429 453.793C435.337 453.793 445.825 439.374 449.98 435C451.733 433.155 454.366 430.853 453.654 428C452.036 421.507 440.296 412.731 435 409M75 411.346C70.5341 412.459 56.1376 426.154 57.3457 431C58.5417 435.798 65.6274 440.627 69 444C71.9377 446.938 77.2688 454.637 82 454.079C86.2447 453.578 101.772 439.425 100.654 434.996C99.3637 429.881 91.6103 424.61 88 421C85.1756 418.176 79.6418 410.189 75 411.346z"/>
<path style="fill:#9c9795; stroke:none;" d="M177 410L178 411L177 410z"/>
<path style="fill:#ada9a7; stroke:none;" d="M190 410L191 411L190 410z"/>
<path style="fill:#9c9795; stroke:none;" d="M178 411L179 412L178 411z"/>
<path style="fill:#918c89; stroke:none;" d="M189 411L190 412L189 411z"/>
<path style="fill:#9c9795; stroke:none;" d="M179 412L180 413L179 412M180 413L181 414L180 413M181 414L182 415L181 414M182 415L183 416L182 415z"/>
<path style="fill:#a17c1c; stroke:none;" d="M393.667 419.333L394.333 419.667L393.667 419.333z"/>
<path style="fill:#fcc00f; stroke:none;" d="M39 446C34.6136 450.386 29.3985 454.658 26.1481 460C14.9507 478.402 37.9002 495.581 54 483.316C57.1012 480.954 64.8025 475.606 63.6543 471C62.3803 465.889 54.603 460.603 51 457C47.146 453.146 43.4609 449.142 39 446M471 448.176C465.553 450.05 447.207 466.054 447.207 472C447.207 483.936 468.114 489.874 477 486.741C490.557 481.961 491.794 467.228 483.532 457C480.989 453.853 475.782 446.531 471 448.176z"/>
<path style="fill:#96741e; stroke:none;" d="M23 466L23 473L24 473L23 466z"/>
<path style="fill:#ffffff; stroke:none;" d="M0 480L0 512L32 512L32 511C14.0551 506.738 8.61905 494.086 0 480M511 480C507.279 495.664 494.057 508.629 478 511L478 512L512 512L511 480z"/>
<path style="fill:#8b6c1f; stroke:none;" d="M482.667 483.333L483.333 483.667L482.667 483.333z"/>
<path style="fill:#a8811b; stroke:none;" d="M463.667 487.333L464.333 487.667L463.667 487.333z"/>
<path style="fill:#886a20; stroke:none;" d="M474.667 487.333L475.333 487.667L474.667 487.333z"/>
<path style="fill:#755c22; stroke:none;" d="M39 488L39 489L45 489L39 488z"/>
<path style="fill:#745b23; stroke:none;" d="M467 488L467 489L472 489L467 488z"/>
</svg>
