<?xml version="1.0" standalone="yes"?>
<svg width="512" height="512">
<path style="fill:#ffffff; stroke:none;" d="M0 0L0 512L29 512L29 280C23.3516 280 17.0746 280.795 12.0147 277.772C-3.26199 268.645 3 236.115 3 221L32 221L32 250L59 250L59 221L90 221L90 250L117 250L117 221L146 221L146 312L181 312L181 180L155 180C162.025 170.028 172.242 162.335 181 153.961C195.292 140.294 209.017 125.983 223 112C230.338 104.662 242.309 96.3262 246.972 87C249.634 81.6758 248 72.8289 248 67L248 25C248 15.8499 246.986 7.97137 252 0L0 0z"/>
<path style="fill:#b8c1c8; stroke:none;" d="M248 87C255.468 81.7921 256.532 81.7921 264 87C264 64.611 263 42.385 263 20C263 13.2768 266.481 0.117279 256 0.117279C245.762 0.117279 248 13.2161 248 20L248 87z"/>
<path style="fill:#ffffff; stroke:none;" d="M260 0L264 7L328 7L314.121 31L328 54L264 54C264 63.3089 261.377 77.2482 264.603 86C268.121 95.5411 281.887 104.887 289 112C302.983 125.983 316.708 140.294 331 153.961C339.758 162.335 349.975 170.028 357 180L331 180L331 312L366 312L366 221L395 221L395 250L422 250L422 221L453 221L453 250L480 250L480 221L509 221C509 236.115 515.262 268.645 499.985 277.772C494.925 280.795 488.648 280 483 280L483 512L512 512L512 0L260 0z"/>
<path style="fill:#ed434b; stroke:none;" d="M264 7L264 54L328 54L314.404 30.4244L328 7L264 7z"/>
<path style="fill:#c79ea5; stroke:none;" d="M263 8L263 53L264 53C264 40.2581 267.91 19.7012 263 8z"/>
<path style="fill:#0083b8; stroke:none;" d="M254 81L244.344 112L221 179L357 180C352.134 169.565 340.187 161.789 332 153.961C314.644 137.365 297.98 119.98 281 103C274.747 96.7467 263.362 80.8595 254 81z"/>
<path style="fill:#037193; stroke:none;" d="M155 180L201 180C206.136 180 214.904 181.688 219.581 179.397C225.299 176.596 227.675 160.667 229.692 155C238.188 131.13 249.161 106.641 255 82C244.819 86.6635 236.804 97.1964 229 105C213.335 120.665 197.759 136.425 182 151.996C173.329 160.564 160.234 168.777 155 180z"/>
<path style="fill:#3298c1; stroke:none;" d="M221 179L221 180L330 180L297 179L221 179z"/>
<path style="fill:#d2d6d8; stroke:none;" d="M181 180L182 344L210 344L210 313L242 313L242 312L218 312L218 209L331 208L331 180L181 180z"/>
<path style="fill:#e7ecef; stroke:none;" d="M218 209L218 312L242 312L242 344L270 344L270 313L302 313L302 344L330 344L331 208L262 208L262 209C285.598 220.736 278 253.881 278 276L234 276C234 254.789 226.19 219.473 250 209C240.85 205.161 227.663 208.801 218 209z"/>
<path style="fill:#273340; stroke:none;" d="M235 275L277 275C277 259.592 281.885 234.051 275.231 220C267.996 204.719 245.369 204.502 237.279 219C234.117 224.666 235 231.763 235 238L235 275z"/>
<path style="fill:#5f6973; stroke:none;" d="M258 208L258 209L261 209L258 208z"/>
<path style="fill:#8d969d; stroke:none;" d="M237 218L238 219L237 218M274 218L275 219L274 218z"/>
<path style="fill:#b8c1c8; stroke:none;" d="M3 221C3 235.14 -2.36305 263.49 7.53318 274.812C15.3623 283.768 34.2865 280 45 280L146 280L146 221L117 221L117 250L90 250L90 221L59 221L59 250L32 250L32 221L3 221M366 221L366 280L467 280C477.713 280 496.638 283.768 504.467 274.812C514.363 263.49 509 235.141 509 221L480 221L480 250L453 250L453 221L422 221L422 250L395 250L395 221L366 221z"/>
<path style="fill:#6b747e; stroke:none;" d="M235.333 222.667L235.667 223.333L235.333 222.667M276.333 222.667L276.667 223.333L276.333 222.667z"/>
<path style="fill:#aab1b7; stroke:none;" d="M234 225L234 228L235 228L234 225M277 225L277 228L278 228L277 225z"/>
<path style="fill:#6f7881; stroke:none;" d="M234 228L234 276L235 276C235 262.474 239.209 240.414 234 228M277 228L277 276L278 276C278 262.474 282.209 240.414 277 228z"/>
<path style="fill:#3e4955; stroke:none;" d="M235 275L235 276L277 276C266.012 271.389 246.957 275 235 275z"/>
<path style="fill:#d2d6d8; stroke:none;" d="M29 280L29 512L64 512L64 438C69.2477 438 76.0418 439.069 80.811 436.427C85.9136 433.601 86.2087 426.126 80.9414 423.318C76.2248 420.803 69.1731 422 64 422L64 306L146 306L146 280L29 280M366 280L366 512L401 512L401 438C406.731 438 414.72 439.4 419.956 436.682C425.789 433.654 426.201 425.65 419.906 422.858C414.679 420.54 406.629 422 401 422L400 306L482 306L482 280L366 280z"/>
<path style="fill:#e7ecef; stroke:none;" d="M482 280L482 306L400 306L400 335L401 335C408.681 316.678 431.631 312.611 441.341 332C448.599 346.494 444 371.054 444 387L401 387L401 422C406.436 422 413.88 420.691 418.96 422.858C425.905 425.82 425.4 433.459 418.985 436.682C413.897 439.239 406.534 438 401 438L401 512L483 512L483 349L483 302L482 280M64 306L64 333L65 333C74.3496 316.237 96.8536 313.126 105.467 333C111.625 347.209 107 371.601 107 387L64 387L64 422C68.734 422 74.5043 421.145 78.9954 422.894C85.0226 425.24 86.5047 432.153 80.811 435.91C76.1191 439.007 69.3328 438 64 438L64 512L145 512L146 306L64 306z"/>
<path style="fill:#ced5da; stroke:none;" d="M145 312L145 512L146 512L146 371L146 331L145 312z"/>
<path style="fill:#b8c1c8; stroke:none;" d="M146 312L146 512L203 512L203 455C203 442.928 201.973 430.489 206.464 419C222.343 378.375 276.987 370.788 300.533 409C309.641 423.781 309 439.312 309 456L309 512L366 512L366 312L330 312L330 344L302 344L302 313L270 313L270 344L242 344L242 313L210 313L210 344L182 344L182 312L146 312z"/>
<path style="fill:#99a1a8; stroke:none;" d="M82 318L82 319L87 319L82 318z"/>
<path style="fill:#a2a9b0; stroke:none;" d="M419 318L419 319L423 319L419 318z"/>
<path style="fill:#273340; stroke:none;" d="M64 386L106 386L106 349C106 342.854 106.944 335.722 104.231 330C96.6589 314.028 73.0747 316.233 65.6883 331C63.011 336.353 64 343.198 64 349L64 386z"/>
<path style="fill:#646e78; stroke:none;" d="M415.667 319.333L416.333 319.667L415.667 319.333z"/>
<path style="fill:#273340; stroke:none;" d="M401 386L443 386L443 349C443 342.698 443.934 335.737 440.811 330.004C432.822 315.336 409.235 315.091 402.367 331C399.913 336.686 401 343.941 401 350L401 386z"/>
<path style="fill:#868e96; stroke:none;" d="M70 324L71 325L70 324z"/>
<path style="fill:#889199; stroke:none;" d="M69 325L70 326L69 325z"/>
<path style="fill:#5d6771; stroke:none;" d="M105.333 332.667L105.667 333.333L105.333 332.667z"/>
<path style="fill:#878f97; stroke:none;" d="M106 335L106 338L107 338L106 335z"/>
<path style="fill:#434e59; stroke:none;" d="M400 335L400 386L401 386C401 371.689 405.508 348.127 400 335z"/>
<path style="fill:#878f97; stroke:none;" d="M443 337L443 386L400 386L400 387L444 387C444 372.951 448.409 349.89 443 337z"/>
<path style="fill:#9ca3a9; stroke:none;" d="M63 338L63 386L64 386C64 372.474 68.2093 350.414 63 338z"/>
<path style="fill:#3e4955; stroke:none;" d="M106 338L106 386L107 386C107 372.474 111.209 350.414 106 338z"/>
<path style="fill:#d2d6d8; stroke:none;" d="M316.109 377.028C310.804 380.015 311.656 387.945 317.105 390.258C322.813 392.68 340.719 392.76 345.852 389.142C350.608 385.79 349.212 378.619 343.981 376.603C338.567 374.517 321.189 374.167 316.109 377.028z"/>
<path style="fill:#6e7882; stroke:none;" d="M250 383L250 384L262 384L250 383z"/>
<path style="fill:#273340; stroke:none;" d="M204 511L308 511L308 451C308 435.764 308.838 421.477 300.533 408C277.797 371.102 221.504 378.365 206.468 418C202.608 428.173 204 440.337 204 451L204 511z"/>
<path style="fill:#878f97; stroke:none;" d="M64 386L64 387L107 387C95.7744 382.29 76.2188 386 64 386z"/>
<path style="fill:#d2d6d8; stroke:none;" d="M166.044 394.858C159.8 397.555 159.946 406.372 166.105 409.142C171.835 411.719 188.301 411.535 193.786 408.427C199.32 405.292 198.562 397.575 192.906 395.148C187.038 392.631 171.927 392.317 166.044 394.858z"/>
<path style="fill:#626d77; stroke:none;" d="M204 425L204 428L205 428L204 425M307 425L307 428L308 428L307 425z"/>
<path style="fill:#6b757f; stroke:none;" d="M203 430L203 512L309 512L309 430L308 430L308 511L204 511L204 455L203 430z"/>
<path style="fill:#d2d6d8; stroke:none;" d="M77.0586 448.028C71.7032 450.962 72.4569 459.165 78.0548 461.397C83.4823 463.56 100.78 463.748 105.867 460.821C111.171 457.769 110.721 449.816 104.981 447.603C99.4999 445.491 82.2299 445.194 77.0586 448.028M417.109 447.742C411.598 450.112 412.143 458.28 417.059 460.972C422.197 463.786 439.577 463.534 444.895 461.142C450.646 458.555 450.833 450.262 444.895 447.742C439.325 445.378 422.67 445.35 417.109 447.742z"/>
</svg>
