<?xml version="1.0" standalone="yes"?>
<svg width="512" height="512">
<path style="fill:#ffffff; stroke:none;" d="M0 0L0 133C23.1485 138.307 45.4669 145.618 69 149.565C105.121 155.622 140.665 155.059 177 153.035C191.69 152.217 206.574 149.668 221 146.8C224.86 146.033 233.429 145.749 235.972 142.411C238.991 138.45 237 127.799 237 123L237 70C248.814 68.2553 260.307 63.0598 272 60.4252C301.159 53.8554 331.087 48.7476 361 48.0146C393.795 47.2111 426.812 50.0102 459 56.4491C476.725 59.9948 494.266 67.3809 512 70L512 0L0 0z"/>
<path style="fill:#fdb62f; stroke:none;" d="M237 70C237 159.065 224.389 259.42 277.884 337C290.435 355.201 304.843 373.984 323 386.96C329.186 391.38 337.992 398.308 346 395.941C362.898 390.946 376.947 376.054 389 364C425.385 327.612 450.151 278.125 456.285 227C457.91 213.46 459 200.666 459 187C459 182.453 460.283 175.548 458.397 171.329C451.381 155.637 422.218 162.668 410 162.772C405.316 162.811 399.428 158.197 400.851 153.004C402.676 146.344 410.355 145.319 416 144.41C432.071 141.823 443.601 146.726 459 149L459 56C425.35 53.3221 393.103 46.5459 359 48.0394C316.624 49.8951 277.959 60.5243 237 70z"/>
<path style="fill:#ffa83d; stroke:none;" d="M459 56L459 117L458 150C467.831 154.297 480.413 163.954 484.856 174C487.774 180.597 480.882 188.443 474.015 184.971C468.163 182.013 464.449 174.839 459 171C459 192.782 459.161 214.479 455.385 236C444.337 298.96 402.76 370.016 343 397C350.525 401.596 361.401 402 370 402C405.124 402 432.646 377.677 454.08 352C481.848 318.735 500.867 279.738 508.576 237C512.825 213.442 512 189.839 512 166L512 70L459 56z"/>
<path style="fill:#4398d1; stroke:none;" d="M0 133C0 228.631 -13.1607 330.366 49.4252 411C60.2257 424.915 72.5259 439.348 87 449.561C136.213 484.284 186.511 450.298 219.247 411C229.393 398.82 247.248 379.258 249.759 363C250.556 357.841 245.477 350.502 243.248 346C237.568 334.53 228.311 319.797 227 307L226 307C224.964 326.971 198.078 334.253 190.148 314C184.825 300.405 199.167 280.458 204 268C184.241 267.592 165.163 258.004 152.3 243C147.314 237.184 133.814 221.06 148.004 216.998C156.618 214.533 163.07 230.086 168.039 234.91C179.036 245.584 193.862 250.998 209 251L204.17 211L203 150C163.035 153.154 125.109 156.706 85 151.715C55.9768 148.104 28.5709 137.204 0 133z"/>
<path style="fill:#de4c3c; stroke:none;" d="M322 140.425C306.353 142.556 291.742 150 281.289 162C276.309 167.717 268.958 184.598 284 182.833C291.912 181.905 297.666 170.43 304 166.055C312.342 160.292 323.745 156.316 334 157.174C340.738 157.737 351.903 163.23 357.566 157.566C362.289 152.843 359.471 145.561 353.985 143.225C344.743 139.289 331.841 139.085 322 140.425z"/>
<path style="fill:#3e8cc7; stroke:none;" d="M236 143L214 147.919L204.028 150.742L203 176L209 252C216.364 255.475 217.286 262.76 210 267C222.974 298.205 233.23 331.532 250 361L251 361C257.229 350.287 267.185 330.669 266.613 318C266.132 307.322 255.938 294.259 252.343 284C244.259 260.932 239.522 237.31 237.17 213C235.617 196.952 237 180.125 237 164C237 157.58 238.497 148.951 236 143z"/>
<path style="fill:#de4c3c; stroke:none;" d="M421 143.428C415.69 144.189 408.49 144.266 404.109 147.653C398.775 151.776 399.354 159.893 406.015 162.396C412.117 164.688 419.895 160.846 426 160.188C434.097 159.316 443.864 162.699 451 166.27C459.776 170.661 469.688 188.273 479.985 185.681C494.755 181.963 478.945 164.648 474 160.093C460.134 147.322 439.753 140.743 421 143.428z"/>
<path style="fill:#ed7f35; stroke:none;" d="M423 160L423 161L433 161L423 160z"/>
<path style="fill:#6898aa; stroke:none;" d="M237 205L237 216L238 216L237 205z"/>
<path style="fill:#ffffff; stroke:none;" d="M511 215C510.845 271.298 477.566 328.449 439 367C413.09 392.9 381.975 409.738 345 397.971C320.236 390.091 300.634 367.165 285.63 347C279.954 339.372 274.174 324.636 266 320C263.778 335.043 255.987 350.519 249.247 364C225.438 411.618 175.681 476.056 115 461.764C93.5982 456.723 78.5945 442.493 63.9645 427C29.5669 390.574 1.03393 335.24 1 284L0 284L0 512L512 512L512 302L512 242L511 215z"/>
<path style="fill:#3570ab; stroke:none;" d="M90.0039 216.758C84.9967 218.535 82.5552 224.102 79.4823 228C74.7003 234.066 68.6989 239.656 62 243.535C56.1638 246.915 48.658 249.49 42 250.56C37.8687 251.224 32.6753 250.192 29.4336 253.434C25.4044 257.463 26.595 265.306 32.0193 267.397C37.4857 269.503 46.501 268.178 52 266.711C69.6219 262.007 84.9153 251.912 95.571 237C99.7197 231.194 104.414 211.642 90.0039 216.758M207 261L210 267C215.518 264.895 217.97 257.764 212.852 253.514C205.82 247.676 190.723 248.852 182 244.218C169.949 237.817 165.511 226.737 155.674 218.653C151.687 215.376 145.82 215.794 142.742 220.133C138.057 226.739 145.367 234.867 149.156 240C158.347 252.452 172.941 262.362 188 266.239C196.149 268.337 203.495 269.725 207 261z"/>
<path style="fill:#de4c3c; stroke:none;" d="M306 253C309.732 269.13 315.706 288.632 327.093 301C353.168 329.32 398.806 328.84 423.674 299C433.913 286.714 439.436 268.404 443 253C408.512 267.339 374.938 274.382 338 265.105C326.801 262.292 316.583 257.406 306 253z"/>
<path style="fill:#87ced9; stroke:none;" d="M207 261C202.743 268.986 199.543 277.67 196 286C192.355 294.57 187.187 303.346 189.533 313C192.952 327.065 211.15 331.057 220.787 320.892C232.779 308.244 220.363 289.836 214.85 277C212.571 271.694 210.635 265.499 207 261z"/>
<path style="fill:#ea7437; stroke:none;" d="M364 269L364 270L384 270L364 269z"/>
<path style="fill:#3570ab; stroke:none;" d="M120 340.464C106.135 342.914 88.8588 348.207 79.213 359.04C69.9072 369.491 73.4976 387.058 86 393.312C96.3301 398.479 106.281 392.124 116 389.208C124.271 386.727 133.421 386.401 142 387.093C154.538 388.106 164.963 397.45 178 394.61C195.763 390.74 198.68 367.12 185.985 356.329C169.868 342.63 140.591 336.825 120 340.464z"/>
</svg>
