<?xml version="1.0" standalone="yes"?>
<svg width="512" height="512">
<path style="fill:#000000; stroke:none;" d="M0 0L0 289L1 289C2.99465 243.249 48.2241 210 91 210C83.3611 183.081 79.2111 157.77 85.4252 130C98.0395 73.6267 151.951 24.4553 212 30.1698C232.395 32.1106 251.881 38.192 269 49.6705C275.374 53.9445 281.497 58.6578 287 64.0146C289.686 66.6296 292.952 71.1467 296.999 71.534C302.974 72.1057 310.833 60.8648 315 57.3001C327.241 46.8275 342.524 38.8627 358 34.4275C426.907 14.6797 509.468 69.7752 511 144L512 144L512 0L0 0z"/>
<path style="fill:#fc5a95; stroke:none;" d="M274 391C285.303 387.675 296.257 379.15 306 372.667C330.431 356.409 352.292 337.742 373 317C430.289 259.619 478.426 163.478 428.655 87C422.055 76.8589 414.263 67.4069 405 59.5903C392.322 48.892 376.505 38.5796 360 34.9946C355.213 33.9548 350.335 36.6656 346 38.3997C334.131 43.1476 322.598 49.6459 313 58.1729C309.485 61.2955 302.14 71.6902 296.999 71.0787C290.228 70.2733 280.682 57.3222 275 53.1551C260.686 42.6582 244.39 35.5216 227 32.0038C145.162 15.4489 78.6078 89.6323 82.0394 168C82.506 178.656 84.6903 189.79 87.7207 200C88.6423 203.105 89.3737 208.083 92.3032 209.972C95.1692 211.821 99.7349 210.97 103 211.749C111.521 213.784 120.393 216.625 128 221.015C135.142 225.136 145.24 238.517 153.015 239.419C159.129 240.128 167.274 229.396 172 226.039C183.955 217.549 197.435 212.075 212 210.286C273.988 202.673 319.185 269.666 305.105 326C298.96 350.586 284.551 368.698 274 391z"/>
<path style="fill:#fb3a82; stroke:none;" d="M359 34L359 35C375.752 40.4509 390.497 48.1959 404 59.5903C414.198 68.1953 422.904 78.6725 429.936 90C482.534 174.732 418.889 274.328 356 332.91C338.25 349.445 318.606 364.397 298 377.192C289.155 382.684 273.225 388.131 269 398C276.587 402.428 288.055 409.642 297 409.863C305.62 410.077 315.529 402.983 323 399.247C345.389 388.052 366.89 375.327 387 360.37C444.996 317.235 504.637 249.282 511.83 174C519.826 90.3232 445.323 9.7417 359 34z"/>
<path style="fill:#000000; stroke:none;" d="M511 176C510.506 199.947 498.494 225.368 487.309 246C458.403 299.32 413.474 344.892 362 376.808C347.653 385.703 333.094 393.7 318 401.247C312.095 404.2 304.72 409.229 298 409.694C288.091 410.379 277.341 400.691 268 398C246.797 426.135 217.41 449.026 187 466.421C178.154 471.481 164.407 481.432 154 481.71C139.14 482.106 118.101 464.976 106 457.424C68.7542 434.179 35.4751 400.439 15.7531 361C9.07259 347.641 1.66191 332.182 1 317L0 317L0 512L512 512L512 275L512 206L511 176z"/>
<path style="fill:#fca5cd; stroke:none;" d="M76 210.428C63.5061 212.218 51.6361 216.663 41 223.436C32.1855 229.049 24.5993 236.64 18.3781 245C-26.6679 305.534 18.0393 384.004 66 427.169C79.794 439.584 94.2089 450.791 110 460.576C114.662 463.464 122.191 469.993 128 469.138C133.354 468.35 139.474 463.393 144 460.575C156.6 452.731 168.66 443.977 180 434.41C231.984 390.549 285.825 305.766 233.535 242C220.596 226.22 200.184 209.227 180 220.312C173.491 223.886 167.589 228.424 162 233.285C159.614 235.361 156.578 239.38 153.015 238.944C146.194 238.108 137.168 225.941 131 222.204C115.366 212.733 94.2124 207.819 76 210.428z"/>
<path style="fill:#fc7cb6; stroke:none;" d="M193 214L193 215C235.759 225.156 263.26 279.87 252.996 321C237.277 383.992 186.835 441.531 128 469L128 471C134.893 475.023 144.881 481.456 153 481.855C159.695 482.184 166.185 477.586 172 474.833C189 466.787 204.98 456.656 220 445.373C259.723 415.535 298.873 369.84 306.725 319C313.815 273.097 287.644 224.412 241 212.478C224.623 208.288 209.157 210.305 193 214z"/>
<path style="fill:#fc5a95; stroke:none;" d="M102.094 338.873C92.733 342.704 95.2578 369.431 107.895 363.986C117.241 359.959 114.425 333.828 102.094 338.873M200.044 338.758C191.105 342.101 192.802 368.654 204.985 364.242C215.327 360.497 212.759 334.002 200.044 338.758M129.044 370.758C119.148 374.46 126.712 389.018 131.185 393.985C140.067 403.846 153.818 406.414 166 401.522C174.549 398.088 180.436 390.739 182.956 382C184.474 376.736 182.726 370.115 176 370.282C165.303 370.546 166.22 391.064 152 388.424C142.215 386.606 139.036 367.02 129.044 370.758z"/>
</svg>
