<svg width="24" height="24" viewBox="0 0 24 24" fill="none" xmlns="http://www.w3.org/2000/svg">
<path d="M12 4.84474L3.44046 13.7117C3.44046 13.7242 3.43796 13.7426 3.43295 13.7677C3.42805 13.7926 3.42545 13.8107 3.42545 13.8235V22.8022C3.42545 23.1264 3.51977 23.4073 3.70836 23.6439C3.8969 23.8806 4.12016 23.9997 4.3782 23.9997H10.0943V16.8166H13.9056V24H19.6217C19.8797 24 20.1033 23.8811 20.2915 23.6439C20.4801 23.4076 20.5748 23.1264 20.5748 22.8022V13.8235C20.5748 13.7737 20.5693 13.7361 20.5598 13.7117L12 4.84474Z" fill="#CACACA"/>
<path d="M23.8345 11.6913L20.5745 8.28688V0.654855C20.5745 0.48038 20.5299 0.336895 20.4403 0.224597C20.3515 0.112429 20.2373 0.0563458 20.0981 0.0563458H17.24C17.101 0.0563458 16.9869 0.112429 16.8975 0.224597C16.8083 0.336895 16.7637 0.480445 16.7637 0.654855V4.30245L13.1315 0.486342C12.8143 0.162092 12.4371 0 12.0004 0C11.5637 0 11.1865 0.162092 10.869 0.486342L0.165418 11.6913C0.066195 11.7909 0.0118127 11.925 0.00169755 12.0934C-0.0083655 12.2616 0.0263077 12.4086 0.105821 12.5332L1.02875 13.9175C1.10827 14.0296 1.21234 14.0982 1.34139 14.1233C1.46053 14.1359 1.57967 14.0921 1.69881 13.9924L12 3.1988L22.3014 13.9923C22.3809 14.0794 22.485 14.1228 22.614 14.1228H22.6587C22.7876 14.0982 22.8914 14.0291 22.9714 13.9172L23.8944 12.5331C23.9738 12.4082 24.0086 12.2615 23.9982 12.0931C23.9881 11.9252 23.9335 11.7911 23.8345 11.6913Z" fill="#CACACA"/>
</svg>
