<svg width="24" height="24" viewBox="0 0 24 24" fill="none" xmlns="http://www.w3.org/2000/svg">
<g clip-path="url(#clip0)">
<path d="M23.7068 22.2932L16.8818 15.4682C18.2038 13.8352 18.9998 11.7603 18.9998 9.50029C18.9998 4.26234 14.7378 0.000366211 9.49988 0.000366211C4.26193 0.000366211 0 4.26229 0 9.50024C0 14.7382 4.26197 19.0002 9.49992 19.0002C11.7599 19.0002 13.8349 18.2042 15.4678 16.8822L22.2928 23.7071C22.4878 23.9021 22.7438 24.0001 22.9998 24.0001C23.2558 24.0001 23.5118 23.9021 23.7068 23.7071C24.0978 23.3161 24.0978 22.6841 23.7068 22.2932ZM9.49992 17.0002C5.36395 17.0002 2 13.6362 2 9.50024C2 5.36427 5.36395 2.00032 9.49992 2.00032C13.6359 2.00032 16.9998 5.36427 16.9998 9.50024C16.9998 13.6362 13.6359 17.0002 9.49992 17.0002Z" fill="#CACACA"/>
</g>
<defs>
<clipPath id="clip0">
<rect width="24" height="24" fill="white"/>
</clipPath>
</defs>
</svg>
